<svg width="961" height="1321" viewBox="0 0 961 1321" fill="none" xmlns="http://www.w3.org/2000/svg">
<path d="M747.815 533.054C743.04 468.631 707.982 473.105 669.128 488.029L642.672 500.115L616.217 512.201L563.314 539.66C532.584 555.626 534.155 599.772 544.558 613.17C544.558 613.17 547.367 619.167 577.279 657.831C607.39 696.754 657.164 689.518 680.158 679.719L739.337 651.619C762.517 635.459 753.784 613.583 747.815 533.054Z" fill="#7041EE"/>
<path d="M404.609 247.69C397.601 208.88 376.601 213.832 353.963 225.371L338.671 234.397L323.379 243.422L293.011 263.468C275.372 275.122 279.142 301.825 286.312 309.296C286.312 309.296 288.4 312.757 309.027 334.324C329.791 356.036 359.55 348.468 372.886 341.052L407.024 320.216C420.066 308.927 413.369 296.202 404.609 247.69Z" stroke="#ABA5FF" stroke-width="11"/>
<path d="M620.056 443.432C648.013 474.223 664.026 458.057 677.822 435.086L686.453 418.468L695.084 401.851L711.039 366.952C720.3 346.671 702.005 324.898 691.417 322.225C691.417 322.225 687.615 320.296 657.115 312.536C626.412 304.725 604.029 328.125 596.247 342.21L577.363 379.922C572.008 397.307 585.109 404.944 620.056 443.432Z" stroke="#ABA5FF" stroke-width="11"/>
<path d="M426.974 447.795C417.288 394.16 388.266 401.004 356.981 416.951L335.847 429.425L314.714 441.898L272.745 469.601C248.368 485.707 253.578 522.61 263.487 532.935C263.487 532.935 266.373 537.719 294.879 567.525C323.576 597.53 364.702 587.071 383.132 576.822L430.311 548.027C448.336 532.425 439.08 514.839 426.974 447.795Z" stroke="#7041EE" stroke-width="11"/>
</svg>
