<svg width="666" height="650" viewBox="0 0 666 650" fill="none" xmlns="http://www.w3.org/2000/svg">
<path fill-rule="evenodd" clip-rule="evenodd" d="M514.83 8.47781C562.324 19.9898 596.315 64.574 612.901 156.422C621.535 204.233 629.735 244.572 636.747 279.065C638.03 285.378 639.274 291.495 640.473 297.427C648.197 335.633 654.138 366.409 656.855 391.827C659.572 417.248 659.177 438.182 653.644 456.492C648.027 475.079 637.371 490.146 621.056 504.267L620.461 504.783L460.071 602.673L459.903 602.766C427.561 620.751 375.664 638.786 319.16 639.293C262.411 639.803 200.653 622.596 149.958 569.589C101.704 519.136 75.0508 489.772 60.4242 472.971C53.1104 464.57 48.7649 459.265 46.211 456.004C44.9322 454.371 44.0845 453.227 43.5279 452.445C43.4091 452.278 43.3026 452.126 43.2071 451.989C33.6445 441.721 25.8981 426.046 20.6973 408.157C15.3357 389.715 12.4412 368.114 13.3383 345.897C15.1287 301.562 32.1704 253.37 76.7314 223.929L147.801 177.018L218.87 130.106L362.267 45.4696L362.529 45.3363C389.189 31.7468 415.808 19.863 441.286 12.6936C466.738 5.53197 491.727 2.87814 514.83 8.47781Z" fill="#EBE3FF"/>
<path fill-rule="evenodd" clip-rule="evenodd" d="M369.608 62.1311L227.127 146.226L85.394 239.782C47.5132 264.809 32.1439 306.252 30.512 346.664C29.698 366.821 32.3395 386.372 37.131 402.853C41.9751 419.515 48.7837 432.256 55.7023 439.465L56.4359 440.229L56.9138 441.022C56.9559 441.084 57.0452 441.215 57.195 441.426C57.5486 441.922 58.2165 442.83 59.359 444.289C61.6475 447.211 65.7671 452.252 72.9437 460.495C87.2979 476.984 113.727 506.11 161.878 556.457C208.232 604.924 264.54 620.767 317.178 620.294C369.963 619.82 418.69 602.9 448.692 586.253L607.395 489.393C621.204 477.303 629.327 465.285 633.645 450.996C638.108 436.229 638.758 418.23 636.152 393.846C633.545 369.457 627.794 339.554 620.039 301.191C618.845 295.287 617.605 289.189 616.324 282.888C609.312 248.393 601.066 207.832 592.393 159.799C576.224 70.2593 544.763 35.7223 508.543 26.9431C489.788 22.3972 468.355 24.3053 444.622 30.9834C420.995 37.6316 395.757 48.8132 369.608 62.1311ZM513.019 8.47781C560.513 19.9898 594.504 64.574 611.09 156.422C619.724 204.233 627.924 244.572 634.936 279.065C636.219 285.378 637.463 291.495 638.662 297.427C646.386 335.633 652.327 366.409 655.044 391.827C657.761 417.248 657.367 438.182 651.833 456.492C646.216 475.079 635.56 490.146 619.245 504.267L618.65 504.783L458.26 602.673L458.092 602.766C425.75 620.751 373.853 638.786 317.349 639.293C260.6 639.803 198.842 622.596 148.147 569.589C99.8932 519.136 73.2399 489.772 58.6133 472.971C51.2995 464.57 46.954 459.265 44.4 456.004C43.1213 454.371 42.2736 453.227 41.717 452.445C41.5982 452.278 41.4916 452.126 41.3962 451.989C31.8336 441.721 24.0871 426.046 18.8863 408.157C13.5248 389.715 10.6303 368.114 11.5274 345.897C13.3178 301.562 30.3595 253.37 74.9205 223.929L217.059 130.106L360.456 45.4696L360.718 45.3363C387.379 31.7468 413.997 19.863 439.476 12.6936C464.927 5.53197 489.917 2.87814 513.019 8.47781Z" fill="#8174FF"/>
</svg>
