<svg width="375" height="812" viewBox="0 0 375 812" fill="none" xmlns="http://www.w3.org/2000/svg">
<g clip-path="url(#clip0_317_4986)">
<rect width="375" height="812" fill="#ABA5FF"/>
<path d="M582.052 -72.8982C565.443 -164.874 515.675 -153.137 462.025 -125.79L425.785 -104.401L389.545 -83.0114L317.574 -35.5048C275.771 -7.88595 284.705 55.397 301.699 73.1026C301.699 73.1026 306.647 81.3067 355.531 132.419C404.741 183.873 475.266 165.937 506.871 148.362L587.775 98.9838C618.685 72.2284 602.813 42.0714 582.052 -72.8982Z" fill="#6C60FF"/>
<path d="M341.919 203.118C316.019 59.6858 238.408 77.9883 154.742 120.635L98.2272 153.991L41.7126 187.347L-70.5231 261.432C-135.714 304.502 -121.781 403.19 -95.2806 430.801C-95.2806 430.801 -87.5637 443.595 -11.3314 523.303C65.4101 603.543 175.391 575.573 224.678 548.165L350.844 471.162C399.048 429.438 374.295 382.409 341.919 203.118Z" fill="#6C60FF"/>
<path d="M702.483 502.238C680.537 380.703 614.774 396.211 543.882 432.347L495.995 460.611L448.108 488.875L353.007 551.649C297.769 588.144 309.575 671.765 332.03 695.161C332.03 695.161 338.568 706.002 403.162 773.541C468.188 841.531 561.378 817.831 603.141 794.607L710.046 729.36C750.89 694.006 729.917 654.157 702.483 502.238Z" stroke="#6C60FF" stroke-width="11"/>
<path d="M70.4833 -135.762C48.5368 -257.297 -17.2256 -241.789 -88.1184 -205.653L-136.005 -177.389L-183.892 -149.125L-278.993 -86.3509C-334.231 -49.8558 -322.425 33.7652 -299.97 57.161C-299.97 57.161 -293.432 68.0018 -228.838 135.541C-163.812 203.531 -70.6219 179.831 -28.8595 156.607L78.0456 91.36C118.89 56.0059 97.9166 16.1569 70.4833 -135.762Z" stroke="#6C60FF" stroke-width="11"/>
</g>
<defs>
<clipPath id="clip0_317_4986">
<rect width="375" height="812" fill="white"/>
</clipPath>
</defs>
</svg>
