<svg width="961" height="1321" viewBox="0 0 961 1321" fill="none" xmlns="http://www.w3.org/2000/svg">
<path d="M390.609 247.69C383.601 208.88 362.601 213.832 339.963 225.371L324.671 234.397L309.379 243.422L279.011 263.468C261.372 275.122 265.142 301.825 272.312 309.296C272.312 309.296 274.4 312.757 295.027 334.324C315.791 356.036 345.55 348.468 358.886 341.052L393.024 320.216C406.066 308.927 399.369 296.202 390.609 247.69Z" stroke="#ABA5FF" stroke-width="11"/>
<path d="M620.056 443.432C648.013 474.223 664.026 458.057 677.822 435.086L686.453 418.468L695.084 401.851L711.039 366.952C720.3 346.671 702.005 324.898 691.417 322.225C691.417 322.225 687.615 320.296 657.115 312.536C626.412 304.725 604.029 328.125 596.247 342.21L577.363 379.922C572.008 397.307 585.109 404.944 620.056 443.432Z" stroke="#ABA5FF" stroke-width="11"/>
<path d="M414.974 447.795C405.288 394.16 376.266 401.004 344.981 416.951L323.847 429.425L302.714 441.898L260.745 469.601C236.368 485.707 241.578 522.61 251.487 532.935C251.487 532.935 254.373 537.719 282.879 567.525C311.576 597.53 352.702 587.071 371.132 576.822L418.311 548.027C436.336 532.425 427.08 514.839 414.974 447.795Z" stroke="#7041EE" stroke-width="11"/>
</svg>
