<svg width="1440" height="1526" viewBox="0 0 1440 1526" fill="none" xmlns="http://www.w3.org/2000/svg">
<rect width="1440" height="1526" fill="#ABA5FF"/>
<path d="M986.052 462.102C969.443 370.126 919.675 381.863 866.025 409.21L829.785 430.599L793.545 451.989L721.574 499.495C679.771 527.114 688.705 590.397 705.699 608.103C705.699 608.103 710.647 616.307 759.531 667.419C808.741 718.873 879.266 700.937 910.871 683.362L991.775 633.984C1022.69 607.228 1006.81 577.071 986.052 462.102Z" fill="#6C60FF"/>
<path d="M771.321 764.472C744.9 618.157 665.729 636.828 580.382 680.331L522.732 714.357L465.082 748.384L350.592 823.957C284.091 867.893 298.304 968.563 325.337 996.729C325.337 996.729 333.209 1009.78 410.973 1091.09C489.256 1172.94 601.446 1144.41 651.723 1116.45L780.425 1037.9C829.597 995.338 804.347 947.365 771.321 764.472Z" fill="#6C60FF"/>
<path d="M1106.48 1037.24C1084.54 915.703 1018.77 931.211 947.882 967.347L899.995 995.611L852.108 1023.87L757.007 1086.65C701.769 1123.14 713.575 1206.77 736.03 1230.16C736.03 1230.16 742.568 1241 807.162 1308.54C872.188 1376.53 965.378 1352.83 1007.14 1329.61L1114.05 1264.36C1154.89 1229.01 1133.92 1189.16 1106.48 1037.24Z" stroke="#6C60FF" stroke-width="11"/>
<path d="M474.483 399.238C452.537 277.703 386.774 293.211 315.882 329.347L267.995 357.611L220.108 385.875L125.007 448.649C69.769 485.144 81.5748 568.765 104.03 592.161C104.03 592.161 110.568 603.002 175.162 670.541C240.188 738.531 333.378 714.831 375.141 691.607L482.046 626.36C522.89 591.006 501.917 551.157 474.483 399.238Z" stroke="#6C60FF" stroke-width="11"/>
</svg>
