<svg width="24" height="24" viewBox="0 0 24 24" fill="none" xmlns="http://www.w3.org/2000/svg">
<path fill-rule="evenodd" clip-rule="evenodd" d="M8.21717 3.11862C10.8262 1.60269 14.033 1.62918 16.6175 3.18802C19.1766 4.77861 20.7319 7.61734 20.7174 10.671C20.6579 13.7047 18.9901 16.5563 16.9054 18.7607C15.7022 20.0388 14.3561 21.169 12.8948 22.1281C12.7443 22.2151 12.5794 22.2734 12.4084 22.3C12.2437 22.293 12.0834 22.2443 11.9418 22.1584C9.71078 20.7173 7.75351 18.8777 6.16414 16.7282C4.8342 14.9339 4.07862 12.7662 4 10.5193C3.99827 7.4598 5.6082 4.63454 8.21717 3.11862ZM9.72521 11.7857C10.1641 12.8677 11.2 13.5734 12.3492 13.5734C13.1021 13.5788 13.8258 13.2772 14.3592 12.7359C14.8925 12.1945 15.1911 11.4584 15.1884 10.6914C15.1924 9.52078 14.5032 8.46313 13.4426 8.0123C12.382 7.56147 11.1592 7.80641 10.3451 8.63273C9.53108 9.45906 9.28635 10.7038 9.72521 11.7857Z" fill="#FF8674"/>
<circle cx="13.9631" cy="11.9633" r="6.22699" fill="#FF8674"/>
<path d="M15.9394 9.08526C15.5664 6.47454 14.1852 6.75893 12.6827 7.48013L11.6652 8.0496L10.6476 8.61906L8.62221 9.89186C7.44574 10.6319 7.63375 12.4258 8.08546 12.9413C8.08546 12.9413 8.2142 13.1775 9.51345 14.6655C10.8214 16.1635 12.7799 15.7237 13.6663 15.2575L15.9394 13.9403C16.8151 13.2145 16.4057 12.3487 15.9394 9.08526Z" fill="#FF8674" stroke="white"/>
</svg>
