<svg width="56" height="56" viewBox="0 0 56 56" fill="none" xmlns="http://www.w3.org/2000/svg">
<path d="M41.3767 11.7056C40.0787 2.97107 35.2728 3.92254 30.0451 6.33542L26.5045 8.24066L22.964 10.1459L15.9166 14.4042C11.8231 16.88 12.4773 22.8819 14.049 24.6067C14.049 24.6067 14.497 25.3967 19.0177 30.3753C23.5686 35.3871 30.3831 33.9156 33.4674 32.3559L41.3767 27.949C44.4237 25.5205 42.9991 22.6238 41.3767 11.7056Z" stroke="#FF8674" stroke-width="3"/>
<path d="M11.4488 46.6795V49.897C11.0455 50.194 10.6147 50.4122 10.1563 50.5515C9.70166 50.6872 9.21399 50.755 8.69332 50.755C8.04432 50.755 7.45582 50.6542 6.92782 50.4525C6.40349 50.2508 5.95432 49.9703 5.58032 49.611C5.20999 49.2517 4.92399 48.8227 4.72232 48.324C4.52066 47.8253 4.41982 47.2808 4.41982 46.6905C4.41982 46.0928 4.51699 45.5447 4.71132 45.046C4.90566 44.5473 5.18066 44.1183 5.53632 43.759C5.89566 43.3997 6.33016 43.121 6.83982 42.923C7.34949 42.725 7.92149 42.626 8.55582 42.626C8.87849 42.626 9.17916 42.6517 9.45782 42.703C9.74016 42.7543 10.0005 42.8258 10.2388 42.9175C10.4808 43.0055 10.7008 43.1137 10.8988 43.242C11.0968 43.3703 11.2783 43.5115 11.4433 43.6655L11.0198 44.3365C10.9538 44.4428 10.8677 44.5088 10.7613 44.5345C10.655 44.5565 10.5395 44.529 10.4148 44.452C10.2938 44.3823 10.1728 44.3127 10.0518 44.243C9.93082 44.1733 9.79516 44.1128 9.64482 44.0615C9.49816 44.0102 9.33132 43.968 9.14432 43.935C8.96099 43.902 8.74832 43.8855 8.50632 43.8855C8.11399 43.8855 7.75832 43.9515 7.43932 44.0835C7.12399 44.2155 6.85449 44.4043 6.63082 44.65C6.40716 44.8957 6.23482 45.1908 6.11382 45.5355C5.99282 45.8802 5.93232 46.2652 5.93232 46.6905C5.93232 47.1452 5.99649 47.5522 6.12482 47.9115C6.25682 48.2672 6.44016 48.5697 6.67482 48.819C6.91316 49.0647 7.19916 49.2535 7.53282 49.3855C7.86649 49.5138 8.23866 49.578 8.64932 49.578C8.94266 49.578 9.20482 49.5468 9.43582 49.4845C9.66682 49.4222 9.89232 49.3378 10.1123 49.2315V47.7905H9.11132C9.01599 47.7905 8.94082 47.7648 8.88582 47.7135C8.83449 47.6585 8.80882 47.5925 8.80882 47.5155V46.6795H11.4488ZM15.6193 48.258C15.227 48.2763 14.897 48.3112 14.6293 48.3625C14.3616 48.4102 14.1471 48.4725 13.9858 48.5495C13.8245 48.6265 13.709 48.7163 13.6393 48.819C13.5696 48.9217 13.5348 49.0335 13.5348 49.1545C13.5348 49.3928 13.6045 49.5633 13.7438 49.666C13.8868 49.7687 14.072 49.82 14.2993 49.82C14.578 49.82 14.8181 49.7705 15.0198 49.6715C15.2251 49.5688 15.425 49.4148 15.6193 49.2095V48.258ZM12.5063 45.8105C13.1553 45.2165 13.9363 44.9195 14.8493 44.9195C15.1793 44.9195 15.4745 44.9745 15.7348 45.0845C15.9951 45.1908 16.2151 45.3412 16.3948 45.5355C16.5745 45.7262 16.7101 45.9553 16.8018 46.223C16.8971 46.4907 16.9448 46.784 16.9448 47.103V50.667H16.3288C16.2005 50.667 16.1015 50.6487 16.0318 50.612C15.9621 50.5717 15.9071 50.4928 15.8668 50.3755L15.7458 49.9685C15.6028 50.0968 15.4635 50.2105 15.3278 50.3095C15.1921 50.4048 15.051 50.4855 14.9043 50.5515C14.7576 50.6175 14.6 50.667 14.4313 50.7C14.2663 50.7367 14.083 50.755 13.8813 50.755C13.643 50.755 13.423 50.7238 13.2213 50.6615C13.0196 50.5955 12.8455 50.4983 12.6988 50.37C12.5521 50.2417 12.4385 50.0822 12.3578 49.8915C12.2771 49.7008 12.2368 49.479 12.2368 49.226C12.2368 49.083 12.2606 48.9418 12.3083 48.8025C12.356 48.6595 12.433 48.5238 12.5393 48.3955C12.6493 48.2672 12.7905 48.1462 12.9628 48.0325C13.1351 47.9188 13.346 47.8198 13.5953 47.7355C13.8483 47.6512 14.1416 47.5833 14.4753 47.532C14.809 47.477 15.1903 47.444 15.6193 47.433V47.103C15.6193 46.7253 15.5386 46.4467 15.3773 46.267C15.216 46.0837 14.9831 45.992 14.6788 45.992C14.4588 45.992 14.2755 46.0177 14.1288 46.069C13.9858 46.1203 13.8593 46.179 13.7493 46.245C13.6393 46.3073 13.5385 46.3642 13.4468 46.4155C13.3588 46.4668 13.2598 46.4925 13.1498 46.4925C13.0545 46.4925 12.9738 46.4687 12.9078 46.421C12.8418 46.3697 12.7886 46.311 12.7483 46.245L12.5063 45.8105ZM20.03 50.755C19.5387 50.755 19.161 50.6175 18.897 50.3425C18.6367 50.0638 18.5065 49.6807 18.5065 49.193V46.0415H17.929C17.8557 46.0415 17.7934 46.0177 17.742 45.97C17.6907 45.9223 17.665 45.8508 17.665 45.7555V45.2165L18.5725 45.068L18.8585 43.528C18.8769 43.4547 18.9117 43.3978 18.963 43.3575C19.0144 43.3172 19.0804 43.297 19.161 43.297H19.865V45.0735H21.372V46.0415H19.865V49.0995C19.865 49.2755 19.9072 49.413 19.9915 49.512C20.0795 49.611 20.1987 49.6605 20.349 49.6605C20.4334 49.6605 20.503 49.6513 20.558 49.633C20.6167 49.611 20.6662 49.589 20.7065 49.567C20.7505 49.545 20.789 49.5248 20.822 49.5065C20.855 49.4845 20.888 49.4735 20.921 49.4735C20.9614 49.4735 20.9944 49.4845 21.02 49.5065C21.0457 49.5248 21.0732 49.5542 21.1025 49.5945L21.5095 50.2545C21.3115 50.4195 21.0842 50.5442 20.8275 50.6285C20.5709 50.7128 20.305 50.755 20.03 50.755ZM23.6003 45.629C23.8203 45.4237 24.0623 45.2568 24.3263 45.1285C24.5903 45.0002 24.9001 44.936 25.2558 44.936C25.5638 44.936 25.837 44.9892 26.0753 45.0955C26.3136 45.1982 26.5116 45.3448 26.6693 45.5355C26.8306 45.7225 26.9516 45.948 27.0323 46.212C27.1166 46.4723 27.1588 46.7602 27.1588 47.0755V50.667H25.8003V47.0755C25.8003 46.7308 25.7215 46.465 25.5638 46.278C25.4061 46.0873 25.166 45.992 24.8433 45.992C24.6086 45.992 24.3886 46.0452 24.1833 46.1515C23.978 46.2578 23.7836 46.4027 23.6003 46.586V50.667H22.2418V42.494H23.6003V45.629ZM32.0863 47.1965C32.0863 47.0205 32.0606 46.8555 32.0093 46.7015C31.9616 46.5438 31.8883 46.4063 31.7893 46.289C31.6903 46.1717 31.5638 46.08 31.4098 46.014C31.2595 45.9443 31.0835 45.9095 30.8818 45.9095C30.4895 45.9095 30.1796 46.0213 29.9523 46.245C29.7286 46.4687 29.5856 46.7858 29.5233 47.1965H32.0863ZM29.4958 48.016C29.5178 48.3057 29.5691 48.5568 29.6498 48.7695C29.7305 48.9785 29.8368 49.1527 29.9688 49.292C30.1008 49.4277 30.2566 49.5303 30.4363 49.6C30.6196 49.666 30.8213 49.699 31.0413 49.699C31.2613 49.699 31.4501 49.6733 31.6078 49.622C31.7691 49.5707 31.9085 49.5138 32.0258 49.4515C32.1468 49.3892 32.2513 49.3323 32.3393 49.281C32.431 49.2297 32.519 49.204 32.6033 49.204C32.717 49.204 32.8013 49.2462 32.8563 49.3305L33.2468 49.8255C33.0965 50.0015 32.9278 50.15 32.7408 50.271C32.5538 50.3883 32.3576 50.4837 32.1523 50.557C31.9506 50.6267 31.7435 50.6762 31.5308 50.7055C31.3218 50.7348 31.1183 50.7495 30.9203 50.7495C30.528 50.7495 30.1631 50.6853 29.8258 50.557C29.4885 50.425 29.1951 50.2325 28.9458 49.9795C28.6965 49.7228 28.5003 49.4075 28.3573 49.0335C28.2143 48.6558 28.1428 48.2195 28.1428 47.7245C28.1428 47.3395 28.2051 46.9783 28.3298 46.641C28.4545 46.3 28.6323 46.0048 28.8633 45.7555C29.098 45.5025 29.3821 45.3027 29.7158 45.156C30.0531 45.0093 30.4326 44.936 30.8543 44.936C31.21 44.936 31.5381 44.9928 31.8388 45.1065C32.1395 45.2202 32.398 45.387 32.6143 45.607C32.8306 45.8233 32.9993 46.091 33.1203 46.41C33.245 46.7253 33.3073 47.0865 33.3073 47.4935C33.3073 47.6988 33.2853 47.8382 33.2413 47.9115C33.1973 47.9812 33.113 48.016 32.9883 48.016H29.4958ZM35.6083 46.003C35.7843 45.6657 35.9933 45.4017 36.2353 45.211C36.4773 45.0167 36.7633 44.9195 37.0933 44.9195C37.3536 44.9195 37.5626 44.9763 37.7203 45.09L37.6323 46.1075C37.6139 46.1735 37.5864 46.2212 37.5498 46.2505C37.5168 46.2762 37.4709 46.289 37.4123 46.289C37.3573 46.289 37.2748 46.2798 37.1648 46.2615C37.0584 46.2432 36.9539 46.234 36.8513 46.234C36.7009 46.234 36.5671 46.256 36.4498 46.3C36.3324 46.344 36.2261 46.4082 36.1308 46.4925C36.0391 46.5732 35.9566 46.6722 35.8833 46.7895C35.8136 46.9068 35.7476 47.0407 35.6853 47.191V50.667H34.3268V45.024H35.1243C35.2636 45.024 35.3608 45.0497 35.4158 45.101C35.4708 45.1487 35.5074 45.2367 35.5258 45.365L35.6083 46.003ZM45.2008 46.6795V49.897C44.7974 50.194 44.3666 50.4122 43.9083 50.5515C43.4536 50.6872 42.9659 50.755 42.4453 50.755C41.7963 50.755 41.2078 50.6542 40.6798 50.4525C40.1554 50.2508 39.7063 49.9703 39.3323 49.611C38.9619 49.2517 38.6759 48.8227 38.4743 48.324C38.2726 47.8253 38.1718 47.2808 38.1718 46.6905C38.1718 46.0928 38.2689 45.5447 38.4633 45.046C38.6576 44.5473 38.9326 44.1183 39.2883 43.759C39.6476 43.3997 40.0821 43.121 40.5918 42.923C41.1014 42.725 41.6734 42.626 42.3078 42.626C42.6304 42.626 42.9311 42.6517 43.2098 42.703C43.4921 42.7543 43.7524 42.8258 43.9908 42.9175C44.2328 43.0055 44.4528 43.1137 44.6508 43.242C44.8488 43.3703 45.0303 43.5115 45.1953 43.6655L44.7718 44.3365C44.7058 44.4428 44.6196 44.5088 44.5133 44.5345C44.4069 44.5565 44.2914 44.529 44.1668 44.452C44.0458 44.3823 43.9248 44.3127 43.8038 44.243C43.6828 44.1733 43.5471 44.1128 43.3968 44.0615C43.2501 44.0102 43.0833 43.968 42.8963 43.935C42.7129 43.902 42.5003 43.8855 42.2583 43.8855C41.8659 43.8855 41.5103 43.9515 41.1913 44.0835C40.8759 44.2155 40.6064 44.4043 40.3828 44.65C40.1591 44.8957 39.9868 45.1908 39.8658 45.5355C39.7448 45.8802 39.6843 46.2652 39.6843 46.6905C39.6843 47.1452 39.7484 47.5522 39.8768 47.9115C40.0088 48.2672 40.1921 48.5697 40.4268 48.819C40.6651 49.0647 40.9511 49.2535 41.2848 49.3855C41.6184 49.5138 41.9906 49.578 42.4013 49.578C42.6946 49.578 42.9568 49.5468 43.1878 49.4845C43.4188 49.4222 43.6443 49.3378 43.8643 49.2315V47.7905H42.8633C42.7679 47.7905 42.6928 47.7648 42.6378 47.7135C42.5864 47.6585 42.5608 47.5925 42.5608 47.5155V46.6795H45.2008ZM48.8443 44.936C49.2623 44.936 49.6418 45.0038 49.9828 45.1395C50.3274 45.2752 50.6208 45.4677 50.8628 45.717C51.1084 45.9663 51.2973 46.2707 51.4293 46.63C51.5613 46.9893 51.6273 47.3908 51.6273 47.8345C51.6273 48.2818 51.5613 48.6852 51.4293 49.0445C51.2973 49.4038 51.1084 49.71 50.8628 49.963C50.6208 50.216 50.3274 50.4103 49.9828 50.546C49.6418 50.6817 49.2623 50.7495 48.8443 50.7495C48.4226 50.7495 48.0394 50.6817 47.6948 50.546C47.3501 50.4103 47.0549 50.216 46.8093 49.963C46.5673 49.71 46.3784 49.4038 46.2428 49.0445C46.1108 48.6852 46.0448 48.2818 46.0448 47.8345C46.0448 47.3908 46.1108 46.9893 46.2428 46.63C46.3784 46.2707 46.5673 45.9663 46.8093 45.717C47.0549 45.4677 47.3501 45.2752 47.6948 45.1395C48.0394 45.0038 48.4226 44.936 48.8443 44.936ZM48.8443 49.7045C49.3136 49.7045 49.6601 49.5468 49.8838 49.2315C50.1111 48.9162 50.2248 48.4542 50.2248 47.8455C50.2248 47.2368 50.1111 46.773 49.8838 46.454C49.6601 46.135 49.3136 45.9755 48.8443 45.9755C48.3676 45.9755 48.0138 46.1368 47.7828 46.4595C47.5554 46.7785 47.4418 47.2405 47.4418 47.8455C47.4418 48.4505 47.5554 48.9125 47.7828 49.2315C48.0138 49.5468 48.3676 49.7045 48.8443 49.7045Z" fill="#F6827C"/>
</svg>
