<svg width="24" height="24" viewBox="0 0 24 24" fill="none" xmlns="http://www.w3.org/2000/svg">
<path d="M12 4H6C4.89543 4 4 4.89543 4 6V18C4 19.1046 4.89543 20 6 20H18C19.1046 20 20 19.1046 20 18V12" stroke="#FF8674" stroke-width="1.5" stroke-linecap="round" stroke-linejoin="round"/>
<path d="M18.2929 3.70711C18.6834 3.31658 19.3166 3.31658 19.7071 3.70711L20.4142 4.41421C20.8047 4.80474 20.8047 5.4379 20.4142 5.82843L12.2628 13.9799C12.0432 14.1994 11.7756 14.3648 11.481 14.463L8.93669 15.3111C8.85851 15.3372 8.78414 15.2628 8.8102 15.1846L9.65831 12.6403C9.7565 12.3457 9.92191 12.0781 10.1415 11.8585L18.2929 3.70711Z" stroke="#FF8674" stroke-width="1.5" stroke-linecap="round" stroke-linejoin="round"/>
</svg>
